<?xml version="1.0" encoding="UTF-8" standalone="no"?>
<!DOCTYPE svg PUBLIC "-//W3C//DTD SVG 1.1//EN"
 "http://www.w3.org/Graphics/SVG/1.1/DTD/svg11.dtd">
<!-- Generated by graphviz version 5.0.0 (20220707.1540)
 -->
<!-- Title: UmlClassDiagram Pages: 1 -->
<svg width="2263pt" height="1712pt"
 viewBox="0.00 0.00 2262.95 1712.00" xmlns="http://www.w3.org/2000/svg" xmlns:xlink="http://www.w3.org/1999/xlink">
<g id="graph0" class="graph" transform="scale(1 1) rotate(0) translate(4 1708)">
<title>UmlClassDiagram</title>
<polygon fill="white" stroke="transparent" points="-4,4 -4,-1708 2258.95,-1708 2258.95,4 -4,4"/>
<!-- 1 -->
<g id="node1" class="node">
<title>1</title>
<polygon fill="#f2f2f2" stroke="black" points="212.71,-323.7 212.71,-457.3 329.79,-457.3 329.79,-323.7 212.71,-323.7"/>
<text text-anchor="middle" x="271.25" y="-440.7" font-family="Times,serif" font-size="14.00">&lt;&lt;Struct&gt;&gt;</text>
<text text-anchor="middle" x="271.25" y="-423.9" font-family="Times,serif" font-size="14.00">TokenDescription</text>
<text text-anchor="middle" x="271.25" y="-407.1" font-family="Times,serif" font-size="14.00">Bank.sol</text>
<polyline fill="none" stroke="black" points="212.71,-398.9 329.79,-398.9 "/>
<text text-anchor="start" x="220.71" y="-382.3" font-family="Times,serif" font-size="14.00">key: bytes32</text>
<text text-anchor="start" x="220.71" y="-365.5" font-family="Times,serif" font-size="14.00">addr: address</text>
<text text-anchor="start" x="220.71" y="-348.7" font-family="Times,serif" font-size="14.00">symbol: string</text>
<text text-anchor="start" x="220.71" y="-331.9" font-family="Times,serif" font-size="14.00">name: string</text>
</g>
<!-- 0 -->
<g id="node2" class="node">
<title>0</title>
<polygon fill="#f2f2f2" stroke="black" points="34.66,-817.5 34.66,-1244.7 563.84,-1244.7 563.84,-817.5 34.66,-817.5"/>
<text text-anchor="middle" x="299.25" y="-1228.1" font-family="Times,serif" font-size="14.00">Bank</text>
<text text-anchor="middle" x="299.25" y="-1211.3" font-family="Times,serif" font-size="14.00">Bank.sol</text>
<polyline fill="none" stroke="black" points="34.66,-1203.1 563.84,-1203.1 "/>
<text text-anchor="start" x="42.66" y="-1186.5" font-family="Times,serif" font-size="14.00">Public:</text>
<text text-anchor="start" x="42.66" y="-1169.7" font-family="Times,serif" font-size="14.00"> &#160;&#160;tokens: mapping(bytes32=&gt;address)</text>
<text text-anchor="start" x="42.66" y="-1152.9" font-family="Times,serif" font-size="14.00"> &#160;&#160;balances: mapping(address=&gt;mapping(bytes32=&gt;uint256))</text>
<text text-anchor="start" x="42.66" y="-1136.1" font-family="Times,serif" font-size="14.00"> &#160;&#160;_tokensIndex: bytes32[]</text>
<polyline fill="none" stroke="black" points="34.66,-1127.9 563.84,-1127.9 "/>
<text text-anchor="start" x="42.66" y="-1111.3" font-family="Times,serif" font-size="14.00">Internal:</text>
<text text-anchor="start" x="42.66" y="-1094.5" font-family="Times,serif" font-size="14.00"> &#160;&#160;&#160;_transfer(meta: IERC20Metadata, from: address, to: address, amount: uint256)</text>
<text text-anchor="start" x="42.66" y="-1077.7" font-family="Times,serif" font-size="14.00">Public:</text>
<text text-anchor="start" x="42.66" y="-1060.9" font-family="Times,serif" font-size="14.00"> &#160;&#160;&#160;&lt;&lt;event&gt;&gt; TokenChanged(key: bytes32, operation: Globals.Change)</text>
<text text-anchor="start" x="42.66" y="-1044.1" font-family="Times,serif" font-size="14.00"> &#160;&#160;&#160;&lt;&lt;event&gt;&gt; Deposited(token: address, from: address, amount: uint)</text>
<text text-anchor="start" x="42.66" y="-1027.3" font-family="Times,serif" font-size="14.00"> &#160;&#160;&#160;&lt;&lt;event&gt;&gt; Withdrew(token: address, to: address, amount: uint)</text>
<text text-anchor="start" x="42.66" y="-1010.5" font-family="Times,serif" font-size="14.00"> &#160;&#160;&#160;&lt;&lt;event&gt;&gt; Transfered(token: address, from: address, to: address, amount: uint)</text>
<text text-anchor="start" x="42.66" y="-993.7" font-family="Times,serif" font-size="14.00"> &#160;&#160;&#160;&lt;&lt;modifier&gt;&gt; onlyExistingTokens(meta: IERC20Metadata)</text>
<text text-anchor="start" x="42.66" y="-976.9" font-family="Times,serif" font-size="14.00"> &#160;&#160;&#160;constructor()</text>
<text text-anchor="start" x="42.66" y="-960.1" font-family="Times,serif" font-size="14.00"> &#160;&#160;&#160;getBalance(meta: IERC20Metadata, addr: address): uint256</text>
<text text-anchor="start" x="42.66" y="-943.3" font-family="Times,serif" font-size="14.00"> &#160;&#160;&#160;deposit(meta: IERC20Metadata, amount: uint256)</text>
<text text-anchor="start" x="42.66" y="-926.5" font-family="Times,serif" font-size="14.00"> &#160;&#160;&#160;withdraw(meta: IERC20Metadata, amount: uint256)</text>
<text text-anchor="start" x="42.66" y="-909.7" font-family="Times,serif" font-size="14.00"> &#160;&#160;&#160;transfer(meta: IERC20Metadata, to: address, amount: uint256)</text>
<text text-anchor="start" x="42.66" y="-892.9" font-family="Times,serif" font-size="14.00"> &#160;&#160;&#160;transferBackOffice(meta: IERC20Metadata, from: address, to: address, amount: uint256)</text>
<text text-anchor="start" x="42.66" y="-876.1" font-family="Times,serif" font-size="14.00"> &#160;&#160;&#160;addToken(meta: IERC20Metadata)</text>
<text text-anchor="start" x="42.66" y="-859.3" font-family="Times,serif" font-size="14.00"> &#160;&#160;&#160;removeToken(meta: IERC20Metadata)</text>
<text text-anchor="start" x="42.66" y="-842.5" font-family="Times,serif" font-size="14.00"> &#160;&#160;&#160;checkTokenAddress(token: address): (exists: bool)</text>
<text text-anchor="start" x="42.66" y="-825.7" font-family="Times,serif" font-size="14.00"> &#160;&#160;&#160;getSupportedTokens(): (descriptions: TokenDescription[])</text>
</g>
<!-- 1&#45;&gt;0 -->
<g id="edge1" class="edge">
<title>1&#45;&gt;0</title>
<path fill="none" stroke="black" d="M269.83,-457.44C271.24,-539.09 276.8,-682.43 282.91,-805.27"/>
<polygon fill="black" stroke="black" points="282.92,-805.48 287.21,-811.27 283.52,-817.47 279.22,-811.68 282.92,-805.48"/>
</g>
<!-- 0&#45;&gt;1 -->
<g id="edge6" class="edge">
<title>0&#45;&gt;1</title>
<path fill="none" stroke="black" stroke-dasharray="5,2" d="M296.33,-817.47C291.85,-696.94 284.95,-553.5 279.15,-467.62"/>
<polygon fill="black" stroke="black" points="282.62,-467.17 278.44,-457.44 275.64,-467.65 282.62,-467.17"/>
</g>
<!-- 6 -->
<g id="node6" class="node">
<title>6</title>
<polygon fill="#f2f2f2" stroke="black" points="334.5,-1394.9 334.5,-1511.7 424,-1511.7 424,-1394.9 334.5,-1394.9"/>
<text text-anchor="middle" x="379.25" y="-1495.1" font-family="Times,serif" font-size="14.00">&lt;&lt;Enum&gt;&gt;</text>
<text text-anchor="middle" x="379.25" y="-1478.3" font-family="Times,serif" font-size="14.00">Change</text>
<text text-anchor="middle" x="379.25" y="-1461.5" font-family="Times,serif" font-size="14.00">Globals.sol</text>
<polyline fill="none" stroke="black" points="334.5,-1453.3 424,-1453.3 "/>
<text text-anchor="start" x="342.5" y="-1436.7" font-family="Times,serif" font-size="14.00">REMOVE: 0</text>
<text text-anchor="start" x="342.5" y="-1419.9" font-family="Times,serif" font-size="14.00">DISABLE: 1</text>
<text text-anchor="start" x="342.5" y="-1403.1" font-family="Times,serif" font-size="14.00">ADD: 2</text>
</g>
<!-- 0&#45;&gt;6 -->
<g id="edge4" class="edge">
<title>0&#45;&gt;6</title>
<path fill="none" stroke="black" stroke-dasharray="5,2" d="M339.77,-1244.97C349.44,-1295.75 359.07,-1346.31 366.39,-1384.78"/>
<polygon fill="black" stroke="black" points="362.99,-1385.63 368.3,-1394.8 369.87,-1384.32 362.99,-1385.63"/>
</g>
<!-- 2 -->
<g id="node7" class="node">
<title>2</title>
<polygon fill="#f2f2f2" stroke="black" points="1052.55,-1661.9 1052.55,-1703.5 1131.94,-1703.5 1131.94,-1661.9 1052.55,-1661.9"/>
<text text-anchor="middle" x="1092.25" y="-1686.9" font-family="Times,serif" font-size="14.00">Globals</text>
<text text-anchor="middle" x="1092.25" y="-1670.1" font-family="Times,serif" font-size="14.00">Globals.sol</text>
</g>
<!-- 0&#45;&gt;2 -->
<g id="edge3" class="edge">
<title>0&#45;&gt;2</title>
<path fill="none" stroke="black" stroke-dasharray="5,2" d="M295.04,-1244.77C294.13,-1403.68 298.65,-1598.01 325.25,-1625.4 375.13,-1676.78 880.08,-1681.58 1042.33,-1681.79"/>
<polygon fill="black" stroke="black" points="1042.52,-1685.29 1052.52,-1681.8 1042.52,-1678.29 1042.52,-1685.29"/>
</g>
<!-- 8 -->
<g id="node9" class="node">
<title>8</title>
<polygon fill="#f2f2f2" stroke="black" points="0,-1281.7 0,-1624.9 278.49,-1624.9 278.49,-1281.7 0,-1281.7"/>
<text text-anchor="middle" x="139.25" y="-1608.3" font-family="Times,serif" font-size="14.00">RoleAccessControl</text>
<text text-anchor="middle" x="139.25" y="-1591.5" font-family="Times,serif" font-size="14.00">RoleAccessControl.sol</text>
<polyline fill="none" stroke="black" points="0,-1583.3 278.49,-1583.3 "/>
<text text-anchor="start" x="8" y="-1566.7" font-family="Times,serif" font-size="14.00">Public:</text>
<text text-anchor="start" x="8" y="-1549.9" font-family="Times,serif" font-size="14.00"> &#160;&#160;OWNER_ROLE: bytes32</text>
<text text-anchor="start" x="8" y="-1533.1" font-family="Times,serif" font-size="14.00"> &#160;&#160;ADMIN_ROLE: bytes32</text>
<text text-anchor="start" x="8" y="-1516.3" font-family="Times,serif" font-size="14.00"> &#160;&#160;OPERATOR_ROLE: bytes32</text>
<polyline fill="none" stroke="black" points="0,-1508.1 278.49,-1508.1 "/>
<text text-anchor="start" x="8" y="-1491.5" font-family="Times,serif" font-size="14.00">Public:</text>
<text text-anchor="start" x="8" y="-1474.7" font-family="Times,serif" font-size="14.00"> &#160;&#160;&#160;&lt;&lt;event&gt;&gt; AdminGranted(addr: address)</text>
<text text-anchor="start" x="8" y="-1457.9" font-family="Times,serif" font-size="14.00"> &#160;&#160;&#160;&lt;&lt;event&gt;&gt; AdminRevoked(addr: address)</text>
<text text-anchor="start" x="8" y="-1441.1" font-family="Times,serif" font-size="14.00"> &#160;&#160;&#160;&lt;&lt;event&gt;&gt; BankerGranted(addr: address)</text>
<text text-anchor="start" x="8" y="-1424.3" font-family="Times,serif" font-size="14.00"> &#160;&#160;&#160;&lt;&lt;event&gt;&gt; BankerRevoked(addr: address)</text>
<text text-anchor="start" x="8" y="-1407.5" font-family="Times,serif" font-size="14.00"> &#160;&#160;&#160;&lt;&lt;event&gt;&gt; OperatorGranted(addr: address)</text>
<text text-anchor="start" x="8" y="-1390.7" font-family="Times,serif" font-size="14.00"> &#160;&#160;&#160;&lt;&lt;event&gt;&gt; OperatorRevoked(addr: address)</text>
<text text-anchor="start" x="8" y="-1373.9" font-family="Times,serif" font-size="14.00"> &#160;&#160;&#160;&lt;&lt;modifier&gt;&gt; onlyAdmin()</text>
<text text-anchor="start" x="8" y="-1357.1" font-family="Times,serif" font-size="14.00"> &#160;&#160;&#160;&lt;&lt;modifier&gt;&gt; onlyOperator()</text>
<text text-anchor="start" x="8" y="-1340.3" font-family="Times,serif" font-size="14.00"> &#160;&#160;&#160;addAdmin(addr: address)</text>
<text text-anchor="start" x="8" y="-1323.5" font-family="Times,serif" font-size="14.00"> &#160;&#160;&#160;removeAdmin(addr: address)</text>
<text text-anchor="start" x="8" y="-1306.7" font-family="Times,serif" font-size="14.00"> &#160;&#160;&#160;addOperator(addr: address)</text>
<text text-anchor="start" x="8" y="-1289.9" font-family="Times,serif" font-size="14.00"> &#160;&#160;&#160;removeOperator(addr: address)</text>
</g>
<!-- 0&#45;&gt;8 -->
<g id="edge2" class="edge">
<title>0&#45;&gt;8</title>
<path fill="none" stroke="black" d="M218.19,-1244.97C217.09,-1247.85 216,-1250.74 214.9,-1253.62"/>
<polygon fill="none" stroke="black" points="205.08,-1249.9 204.22,-1281.67 224.7,-1257.37 205.08,-1249.9"/>
</g>
<!-- 9 -->
<g id="node10" class="node">
<title>9</title>
<polygon fill="#f2f2f2" stroke="black" points="442.28,-1336.1 442.28,-1570.5 988.21,-1570.5 988.21,-1336.1 442.28,-1336.1"/>
<text text-anchor="middle" x="715.25" y="-1553.9" font-family="Times,serif" font-size="14.00">&lt;&lt;Library&gt;&gt;</text>
<text text-anchor="middle" x="715.25" y="-1537.1" font-family="Times,serif" font-size="14.00">Utils</text>
<text text-anchor="middle" x="715.25" y="-1520.3" font-family="Times,serif" font-size="14.00">Utils.sol</text>
<polyline fill="none" stroke="black" points="442.28,-1512.1 988.21,-1512.1 "/>
<text text-anchor="start" x="450.28" y="-1495.5" font-family="Times,serif" font-size="14.00">Public:</text>
<text text-anchor="start" x="450.28" y="-1478.7" font-family="Times,serif" font-size="14.00"> &#160;&#160;&#160;getKey(s: string): bytes32</text>
<text text-anchor="start" x="450.28" y="-1461.9" font-family="Times,serif" font-size="14.00"> &#160;&#160;&#160;getFirstIndexByValueBytes32(array: bytes32[], value: bytes32): uint256</text>
<text text-anchor="start" x="450.28" y="-1445.1" font-family="Times,serif" font-size="14.00"> &#160;&#160;&#160;removeFirstFromArrayByValueBytes32(array: bytes32[], value: bytes32): bytes32[]</text>
<text text-anchor="start" x="450.28" y="-1428.3" font-family="Times,serif" font-size="14.00"> &#160;&#160;&#160;removeFirstFromArrayByValueBytes32Storage(array: bytes32[], value: bytes32): bytes32[]</text>
<text text-anchor="start" x="450.28" y="-1411.5" font-family="Times,serif" font-size="14.00"> &#160;&#160;&#160;doesArrayContainValueBytes32(array: bytes32[], value: bytes32): bool</text>
<text text-anchor="start" x="450.28" y="-1394.7" font-family="Times,serif" font-size="14.00"> &#160;&#160;&#160;getFirstIndexByValueAddress(array: address[], value: address): uint256</text>
<text text-anchor="start" x="450.28" y="-1377.9" font-family="Times,serif" font-size="14.00"> &#160;&#160;&#160;removeFirstFromArrayByValueAddressStorage(array: address[], value: address): address[]</text>
<text text-anchor="start" x="450.28" y="-1361.1" font-family="Times,serif" font-size="14.00"> &#160;&#160;&#160;doesArrayContainValueAddress(array: address[], value: address): bool</text>
<text text-anchor="start" x="450.28" y="-1344.3" font-family="Times,serif" font-size="14.00"> &#160;&#160;&#160;addDuration(timestamp: uint256, duration: uint256): uint256</text>
</g>
<!-- 0&#45;&gt;9 -->
<g id="edge5" class="edge">
<title>0&#45;&gt;9</title>
<path fill="none" stroke="black" stroke-dasharray="5,2" d="M509.99,-1244.97C538.33,-1273.6 566.6,-1302.15 592.7,-1328.51"/>
<polygon fill="black" stroke="black" points="590.48,-1331.25 600,-1335.89 595.45,-1326.32 590.48,-1331.25"/>
</g>
<!-- 3 -->
<g id="node3" class="node">
<title>3</title>
<polygon fill="#f2f2f2" stroke="black" points="1120.64,-1403.3 1120.64,-1503.3 1273.86,-1503.3 1273.86,-1403.3 1120.64,-1403.3"/>
<text text-anchor="middle" x="1197.25" y="-1486.7" font-family="Times,serif" font-size="14.00">&lt;&lt;Struct&gt;&gt;</text>
<text text-anchor="middle" x="1197.25" y="-1469.9" font-family="Times,serif" font-size="14.00">Pair</text>
<text text-anchor="middle" x="1197.25" y="-1453.1" font-family="Times,serif" font-size="14.00">Globals.sol</text>
<polyline fill="none" stroke="black" points="1120.64,-1444.9 1273.86,-1444.9 "/>
<text text-anchor="start" x="1128.64" y="-1428.3" font-family="Times,serif" font-size="14.00">collateralToken: address</text>
<text text-anchor="start" x="1128.64" y="-1411.5" font-family="Times,serif" font-size="14.00">borrowToken: address</text>
</g>
<!-- 3&#45;&gt;2 -->
<g id="edge10" class="edge">
<title>3&#45;&gt;2</title>
<path fill="none" stroke="black" d="M1174.59,-1503.36C1153.97,-1548.01 1124.16,-1612.58 1106.64,-1650.54"/>
<polygon fill="black" stroke="black" points="1106.43,-1650.97 1107.55,-1658.1 1101.4,-1661.87 1100.29,-1654.74 1106.43,-1650.97"/>
</g>
<!-- 4 -->
<g id="node4" class="node">
<title>4</title>
<polygon fill="#f2f2f2" stroke="black" points="984.22,-955.9 984.22,-1106.3 1138.27,-1106.3 1138.27,-955.9 984.22,-955.9"/>
<text text-anchor="middle" x="1061.25" y="-1089.7" font-family="Times,serif" font-size="14.00">&lt;&lt;Struct&gt;&gt;</text>
<text text-anchor="middle" x="1061.25" y="-1072.9" font-family="Times,serif" font-size="14.00">LoanConfig</text>
<text text-anchor="middle" x="1061.25" y="-1056.1" font-family="Times,serif" font-size="14.00">Globals.sol</text>
<polyline fill="none" stroke="black" points="984.22,-1047.9 1138.27,-1047.9 "/>
<text text-anchor="start" x="992.22" y="-1031.3" font-family="Times,serif" font-size="14.00">tokenPair: Pair</text>
<text text-anchor="start" x="992.22" y="-1014.5" font-family="Times,serif" font-size="14.00">interest: uint256</text>
<text text-anchor="start" x="992.22" y="-997.7" font-family="Times,serif" font-size="14.00">duration: uint256</text>
<text text-anchor="start" x="992.22" y="-980.9" font-family="Times,serif" font-size="14.00">liquidationLTV: uint256</text>
<text text-anchor="start" x="992.22" y="-964.1" font-family="Times,serif" font-size="14.00">enabled: bool</text>
</g>
<!-- 4&#45;&gt;3 -->
<g id="edge7" class="edge">
<title>4&#45;&gt;3</title>
<path fill="none" stroke="black" stroke-dasharray="5,2" d="M1085.4,-1106.74C1111.92,-1188.67 1153.94,-1318.51 1178.22,-1393.52"/>
<polygon fill="black" stroke="black" points="1174.97,-1394.85 1181.38,-1403.29 1181.63,-1392.7 1174.97,-1394.85"/>
</g>
<!-- 4&#45;&gt;2 -->
<g id="edge11" class="edge">
<title>4&#45;&gt;2</title>
<path fill="none" stroke="black" d="M1064.79,-1106.3C1071.54,-1247.76 1086,-1550.74 1090.72,-1649.71"/>
<polygon fill="black" stroke="black" points="1090.72,-1649.78 1095,-1655.59 1091.3,-1661.77 1087.01,-1655.97 1090.72,-1649.78"/>
</g>
<!-- 5 -->
<g id="node5" class="node">
<title>5</title>
<polygon fill="#f2f2f2" stroke="black" points="802.18,-930.7 802.18,-1131.5 966.31,-1131.5 966.31,-930.7 802.18,-930.7"/>
<text text-anchor="middle" x="884.25" y="-1114.9" font-family="Times,serif" font-size="14.00">&lt;&lt;Struct&gt;&gt;</text>
<text text-anchor="middle" x="884.25" y="-1098.1" font-family="Times,serif" font-size="14.00">Loan</text>
<text text-anchor="middle" x="884.25" y="-1081.3" font-family="Times,serif" font-size="14.00">Globals.sol</text>
<polyline fill="none" stroke="black" points="802.18,-1073.1 966.31,-1073.1 "/>
<text text-anchor="start" x="810.18" y="-1056.5" font-family="Times,serif" font-size="14.00">tokenPair: Pair</text>
<text text-anchor="start" x="810.18" y="-1039.7" font-family="Times,serif" font-size="14.00">collateralAmount: uint256</text>
<text text-anchor="start" x="810.18" y="-1022.9" font-family="Times,serif" font-size="14.00">borrowAmount: uint256</text>
<text text-anchor="start" x="810.18" y="-1006.1" font-family="Times,serif" font-size="14.00">ownedAmount: uint256</text>
<text text-anchor="start" x="810.18" y="-989.3" font-family="Times,serif" font-size="14.00">created: uint256</text>
<text text-anchor="start" x="810.18" y="-972.5" font-family="Times,serif" font-size="14.00">deadline: uint256</text>
<text text-anchor="start" x="810.18" y="-955.7" font-family="Times,serif" font-size="14.00">configId: bytes32</text>
<text text-anchor="start" x="810.18" y="-938.9" font-family="Times,serif" font-size="14.00">paid: bool</text>
</g>
<!-- 5&#45;&gt;3 -->
<g id="edge8" class="edge">
<title>5&#45;&gt;3</title>
<path fill="none" stroke="black" stroke-dasharray="5,2" d="M908.42,-1131.52C922.34,-1171.18 943.57,-1214.59 975.25,-1245.2 1007.12,-1276 1032.88,-1254.48 1068.25,-1281.2 1108.5,-1311.62 1142.31,-1357.83 1165.21,-1394.56"/>
<polygon fill="black" stroke="black" points="1162.29,-1396.5 1170.5,-1403.2 1168.26,-1392.85 1162.29,-1396.5"/>
</g>
<!-- 5&#45;&gt;2 -->
<g id="edge12" class="edge">
<title>5&#45;&gt;2</title>
<path fill="none" stroke="black" d="M912.95,-1131.64C927.36,-1169.96 947.73,-1212.36 975.25,-1245.2 994.01,-1267.59 1014.89,-1256.35 1030.25,-1281.2 1111.2,-1412.22 1033.02,-1475.96 1070.25,-1625.4 1072.33,-1633.75 1075.33,-1642.52 1078.45,-1650.59"/>
<polygon fill="black" stroke="black" points="1078.48,-1650.67 1084.45,-1654.72 1083.02,-1661.78 1077.05,-1657.74 1078.48,-1650.67"/>
</g>
<!-- 6&#45;&gt;2 -->
<g id="edge9" class="edge">
<title>6&#45;&gt;2</title>
<path fill="none" stroke="black" d="M381.6,-1511.89C386.43,-1550.22 399.45,-1598.34 433.25,-1625.4 480.22,-1663.01 892.19,-1676.78 1039.86,-1680.53"/>
<polygon fill="black" stroke="black" points="1040.09,-1680.54 1046.18,-1676.69 1052.08,-1680.83 1045.99,-1684.68 1040.09,-1680.54"/>
</g>
<!-- 7 -->
<g id="node8" class="node">
<title>7</title>
<polygon fill="#f2f2f2" stroke="black" points="348.26,-0.5 348.26,-780.5 1200.23,-780.5 1200.23,-0.5 348.26,-0.5"/>
<text text-anchor="middle" x="774.25" y="-763.9" font-family="Times,serif" font-size="14.00">LoanableBank</text>
<text text-anchor="middle" x="774.25" y="-747.1" font-family="Times,serif" font-size="14.00">LoanableBank.sol</text>
<polyline fill="none" stroke="black" points="348.26,-738.9 1200.23,-738.9 "/>
<text text-anchor="start" x="356.26" y="-722.3" font-family="Times,serif" font-size="14.00">Public:</text>
<text text-anchor="start" x="356.26" y="-705.5" font-family="Times,serif" font-size="14.00"> &#160;&#160;_enabledPairs: mapping(bytes32=&gt;bool)</text>
<text text-anchor="start" x="356.26" y="-688.7" font-family="Times,serif" font-size="14.00"> &#160;&#160;_pairs: mapping(bytes32=&gt;Globals.Pair)</text>
<text text-anchor="start" x="356.26" y="-671.9" font-family="Times,serif" font-size="14.00"> &#160;&#160;_pairsIndex: bytes32[]</text>
<text text-anchor="start" x="356.26" y="-655.1" font-family="Times,serif" font-size="14.00"> &#160;&#160;_ltvs: mapping(bytes32=&gt;uint256)</text>
<text text-anchor="start" x="356.26" y="-638.3" font-family="Times,serif" font-size="14.00"> &#160;&#160;_ltvUpdateTimestamp: uint256</text>
<text text-anchor="start" x="356.26" y="-621.5" font-family="Times,serif" font-size="14.00"> &#160;&#160;_enabledPairsCount: uint256</text>
<text text-anchor="start" x="356.26" y="-604.7" font-family="Times,serif" font-size="14.00"> &#160;&#160;loanConfigs: mapping(bytes32=&gt;Globals.LoanConfig)</text>
<text text-anchor="start" x="356.26" y="-587.9" font-family="Times,serif" font-size="14.00"> &#160;&#160;_loanConfigsIndex: bytes32[]</text>
<text text-anchor="start" x="356.26" y="-571.1" font-family="Times,serif" font-size="14.00"> &#160;&#160;_loans: mapping(address=&gt;Globals.Loan)</text>
<text text-anchor="start" x="356.26" y="-554.3" font-family="Times,serif" font-size="14.00"> &#160;&#160;_loanHolders: address[]</text>
<text text-anchor="start" x="356.26" y="-537.5" font-family="Times,serif" font-size="14.00"> &#160;&#160;oracle: IOracle</text>
<text text-anchor="start" x="356.26" y="-520.7" font-family="Times,serif" font-size="14.00"> &#160;&#160;liquidator: ILiquidator</text>
<polyline fill="none" stroke="black" points="348.26,-512.5 1200.23,-512.5 "/>
<text text-anchor="start" x="356.26" y="-495.9" font-family="Times,serif" font-size="14.00">Internal:</text>
<text text-anchor="start" x="356.26" y="-479.1" font-family="Times,serif" font-size="14.00"> &#160;&#160;&#160;_removeLoan(holder: address)</text>
<text text-anchor="start" x="356.26" y="-462.3" font-family="Times,serif" font-size="14.00"> &#160;&#160;&#160;_liquidateLoan(loan: Globals.Loan, holder: address): Globals.Loan</text>
<text text-anchor="start" x="356.26" y="-445.5" font-family="Times,serif" font-size="14.00"> &#160;&#160;&#160;_chekLiquidationConditions(loan: Globals.Loan): bool</text>
<text text-anchor="start" x="356.26" y="-428.7" font-family="Times,serif" font-size="14.00"> &#160;&#160;&#160;_getBorrowAmount(amount: uint256, ltv: uint256): uint256</text>
<text text-anchor="start" x="356.26" y="-411.9" font-family="Times,serif" font-size="14.00"> &#160;&#160;&#160;_addInterest(amount: uint256, interest: uint256, duration: uint256): uint256</text>
<text text-anchor="start" x="356.26" y="-395.1" font-family="Times,serif" font-size="14.00">Public:</text>
<text text-anchor="start" x="356.26" y="-378.3" font-family="Times,serif" font-size="14.00"> &#160;&#160;&#160;&lt;&lt;event&gt;&gt; PairChanged(configKey: bytes32, operation: Globals.Change)</text>
<text text-anchor="start" x="356.26" y="-361.5" font-family="Times,serif" font-size="14.00"> &#160;&#160;&#160;&lt;&lt;event&gt;&gt; ConfigChanged(configKey: bytes32, operation: Globals.Change)</text>
<text text-anchor="start" x="356.26" y="-344.7" font-family="Times,serif" font-size="14.00"> &#160;&#160;&#160;&lt;&lt;event&gt;&gt; LoanCreated(holder: address, configKey: bytes32, ownedAmount: uint, deadline: uint)</text>
<text text-anchor="start" x="356.26" y="-327.9" font-family="Times,serif" font-size="14.00"> &#160;&#160;&#160;&lt;&lt;event&gt;&gt; LoanPaid(holder: address, paidAmount: uint, fullPayment: bool)</text>
<text text-anchor="start" x="356.26" y="-311.1" font-family="Times,serif" font-size="14.00"> &#160;&#160;&#160;&lt;&lt;event&gt;&gt; LoanLiquidated(holder: address)</text>
<text text-anchor="start" x="356.26" y="-294.3" font-family="Times,serif" font-size="14.00"> &#160;&#160;&#160;constructor(oracle_: IOracle, liquidator_: ILiquidator)</text>
<text text-anchor="start" x="356.26" y="-277.5" font-family="Times,serif" font-size="14.00"> &#160;&#160;&#160;addPair(pair: Globals.Pair)</text>
<text text-anchor="start" x="356.26" y="-260.7" font-family="Times,serif" font-size="14.00"> &#160;&#160;&#160;removePair(pair: Globals.Pair)</text>
<text text-anchor="start" x="356.26" y="-243.9" font-family="Times,serif" font-size="14.00"> &#160;&#160;&#160;disablePair(pair: Globals.Pair)</text>
<text text-anchor="start" x="356.26" y="-227.1" font-family="Times,serif" font-size="14.00"> &#160;&#160;&#160;addLoanConfig(config: Globals.LoanConfig)</text>
<text text-anchor="start" x="356.26" y="-210.3" font-family="Times,serif" font-size="14.00"> &#160;&#160;&#160;removeLoanConfig(config: Globals.LoanConfig)</text>
<text text-anchor="start" x="356.26" y="-193.5" font-family="Times,serif" font-size="14.00"> &#160;&#160;&#160;disableLoanConfig(config: Globals.LoanConfig)</text>
<text text-anchor="start" x="356.26" y="-176.7" font-family="Times,serif" font-size="14.00"> &#160;&#160;&#160;requestLoan(tokenPair: Globals.Pair, interest: uint256, duration: uint256, amount: uint256)</text>
<text text-anchor="start" x="356.26" y="-159.9" font-family="Times,serif" font-size="14.00"> &#160;&#160;&#160;getLoanPreview(tokenPair: Globals.Pair, interest: uint256, duration: uint256, amount: uint256): (loan: Globals.Loan, config: Globals.LoanConfig)</text>
<text text-anchor="start" x="356.26" y="-143.1" font-family="Times,serif" font-size="14.00"> &#160;&#160;&#160;getAllLoans(): (Globals.Loan[], address[])</text>
<text text-anchor="start" x="356.26" y="-126.3" font-family="Times,serif" font-size="14.00"> &#160;&#160;&#160;payLoan(holder: address, amount: uint256): Globals.Loan</text>
<text text-anchor="start" x="356.26" y="-109.5" font-family="Times,serif" font-size="14.00"> &#160;&#160;&#160;getLTVs(pairs: Globals.Pair[]): (ltvs: uint256[])</text>
<text text-anchor="start" x="356.26" y="-92.7" font-family="Times,serif" font-size="14.00"> &#160;&#160;&#160;liquidateLoan(holder: address)</text>
<text text-anchor="start" x="356.26" y="-75.9" font-family="Times,serif" font-size="14.00"> &#160;&#160;&#160;updateLoans()</text>
<text text-anchor="start" x="356.26" y="-59.1" font-family="Times,serif" font-size="14.00"> &#160;&#160;&#160;getAllPairs(onlyEnabled: bool): (Globals.Pair[], bytes32[])</text>
<text text-anchor="start" x="356.26" y="-42.3" font-family="Times,serif" font-size="14.00"> &#160;&#160;&#160;getPairKey(pair: Globals.Pair): bytes32</text>
<text text-anchor="start" x="356.26" y="-25.5" font-family="Times,serif" font-size="14.00"> &#160;&#160;&#160;getLoanConfigKey(config: Globals.LoanConfig): bytes32</text>
<text text-anchor="start" x="356.26" y="-8.7" font-family="Times,serif" font-size="14.00"> &#160;&#160;&#160;getLoanConfigId(pair: Globals.Pair, interest: uint256, duration: uint256): bytes32</text>
</g>
<!-- 7&#45;&gt;0 -->
<g id="edge13" class="edge">
<title>7&#45;&gt;0</title>
<path fill="none" stroke="black" d="M484.59,-780.91C481.51,-785.06 478.43,-789.2 475.37,-793.31"/>
<polygon fill="none" stroke="black" points="466.9,-787.11 457.42,-817.45 483.75,-799.65 466.9,-787.11"/>
</g>
<!-- 7&#45;&gt;3 -->
<g id="edge18" class="edge">
<title>7&#45;&gt;3</title>
<path fill="none" stroke="black" stroke-dasharray="5,2" d="M1130.37,-780.68C1136.44,-792.67 1142.09,-804.78 1147.25,-817 1158.34,-843.3 1184.04,-1240.1 1193.59,-1392.92"/>
<polygon fill="black" stroke="black" points="1190.11,-1393.3 1194.22,-1403.06 1197.09,-1392.86 1190.11,-1393.3"/>
</g>
<!-- 7&#45;&gt;4 -->
<g id="edge20" class="edge">
<title>7&#45;&gt;4</title>
<path fill="none" stroke="black" stroke-dasharray="5,2" d="M959.17,-780.64C964.64,-792.88 970.01,-805.02 975.25,-817 993.75,-859.3 1013.1,-906.9 1028.75,-946.37"/>
<polygon fill="black" stroke="black" points="1025.51,-947.68 1032.44,-955.7 1032.02,-945.11 1025.51,-947.68"/>
</g>
<!-- 7&#45;&gt;5 -->
<g id="edge21" class="edge">
<title>7&#45;&gt;5</title>
<path fill="none" stroke="black" stroke-dasharray="5,2" d="M841.32,-780.91C850.08,-831.74 858.4,-880.07 865.35,-920.41"/>
<polygon fill="black" stroke="black" points="861.94,-921.23 867.09,-930.49 868.84,-920.04 861.94,-921.23"/>
</g>
<!-- 7&#45;&gt;6 -->
<g id="edge15" class="edge">
<title>7&#45;&gt;6</title>
<path fill="none" stroke="black" stroke-dasharray="5,2" d="M722.43,-780.53C689.23,-972.5 639.78,-1177.29 573.25,-1245.2 528.28,-1291.09 479.89,-1237.01 433.25,-1281.2 405.05,-1307.91 391.51,-1349.2 385.04,-1384.52"/>
<polygon fill="black" stroke="black" points="381.52,-1384.34 383.32,-1394.78 388.42,-1385.5 381.52,-1384.34"/>
</g>
<!-- 7&#45;&gt;2 -->
<g id="edge14" class="edge">
<title>7&#45;&gt;2</title>
<path fill="none" stroke="black" stroke-dasharray="5,2" d="M760.74,-780.58C757.44,-988.22 761.81,-1208.57 793.25,-1245.2 853.2,-1315.07 934.77,-1213.58 997.25,-1281.2 1049.39,-1337.64 995.82,-1556.7 1030.25,-1625.4 1035.9,-1636.67 1044.83,-1646.77 1054.18,-1655.19"/>
<polygon fill="black" stroke="black" points="1052.17,-1658.08 1062.07,-1661.86 1056.69,-1652.73 1052.17,-1658.08"/>
</g>
<!-- 7&#45;&gt;9 -->
<g id="edge19" class="edge">
<title>7&#45;&gt;9</title>
<path fill="none" stroke="black" stroke-dasharray="5,2" d="M752.59,-780.86C741.91,-972.86 729.75,-1191.46 722.29,-1325.65"/>
<polygon fill="black" stroke="black" points="718.78,-1325.78 721.72,-1335.96 725.77,-1326.17 718.78,-1325.78"/>
</g>
<!-- 10 -->
<g id="node11" class="node">
<title>10</title>
<polygon fill="#f2f2f2" stroke="black" points="1194.57,-981.1 1194.57,-1081.1 1635.92,-1081.1 1635.92,-981.1 1194.57,-981.1"/>
<text text-anchor="middle" x="1415.25" y="-1064.5" font-family="Times,serif" font-size="14.00">&lt;&lt;Interface&gt;&gt;</text>
<text text-anchor="middle" x="1415.25" y="-1047.7" font-family="Times,serif" font-size="14.00">ILiquidator</text>
<text text-anchor="middle" x="1415.25" y="-1030.9" font-family="Times,serif" font-size="14.00">interfacesILiquidator.sol</text>
<polyline fill="none" stroke="black" points="1194.57,-1022.7 1635.92,-1022.7 "/>
<text text-anchor="start" x="1202.57" y="-1006.1" font-family="Times,serif" font-size="14.00">External:</text>
<text text-anchor="start" x="1202.57" y="-989.3" font-family="Times,serif" font-size="14.00"> &#160;&#160;&#160;&#160;liquidate(pair: Globals.Pair, amount: uint256, reciever: address): uint256</text>
</g>
<!-- 7&#45;&gt;10 -->
<g id="edge17" class="edge">
<title>7&#45;&gt;10</title>
<path fill="none" stroke="black" d="M1165.12,-780.91C1241.44,-856.94 1312.16,-927.39 1358.78,-973.85"/>
<polygon fill="black" stroke="black" points="1356.5,-976.52 1366.06,-981.09 1361.44,-971.56 1356.5,-976.52"/>
</g>
<!-- 11 -->
<g id="node12" class="node">
<title>11</title>
<polygon fill="#f2f2f2" stroke="black" points="1691.96,-981.1 1691.96,-1081.1 1924.54,-1081.1 1924.54,-981.1 1691.96,-981.1"/>
<text text-anchor="middle" x="1808.25" y="-1064.5" font-family="Times,serif" font-size="14.00">&lt;&lt;Interface&gt;&gt;</text>
<text text-anchor="middle" x="1808.25" y="-1047.7" font-family="Times,serif" font-size="14.00">IOracle</text>
<text text-anchor="middle" x="1808.25" y="-1030.9" font-family="Times,serif" font-size="14.00">interfacesIOracle.sol</text>
<polyline fill="none" stroke="black" points="1691.96,-1022.7 1924.54,-1022.7 "/>
<text text-anchor="start" x="1699.96" y="-1006.1" font-family="Times,serif" font-size="14.00">External:</text>
<text text-anchor="start" x="1699.96" y="-989.3" font-family="Times,serif" font-size="14.00"> &#160;&#160;&#160;&#160;getPairRatio(Globals.Pair): uint256</text>
</g>
<!-- 7&#45;&gt;11 -->
<g id="edge16" class="edge">
<title>7&#45;&gt;11</title>
<path fill="none" stroke="black" d="M1200.54,-777.16C1203.43,-778.47 1206.34,-779.75 1209.25,-781 1387.85,-857.85 1474.62,-723.76 1645.25,-817 1708.16,-851.38 1754.34,-921.45 1781.17,-971.87"/>
<polygon fill="black" stroke="black" points="1778.23,-973.8 1785.96,-981.04 1784.44,-970.56 1778.23,-973.8"/>
</g>
<!-- 10&#45;&gt;3 -->
<g id="edge23" class="edge">
<title>10&#45;&gt;3</title>
<path fill="none" stroke="black" stroke-dasharray="5,2" d="M1389.81,-1081.12C1349.38,-1159.06 1270.6,-1310.91 1227.39,-1394.19"/>
<polygon fill="black" stroke="black" points="1224.19,-1392.77 1222.69,-1403.26 1230.4,-1396 1224.19,-1392.77"/>
</g>
<!-- 10&#45;&gt;2 -->
<g id="edge22" class="edge">
<title>10&#45;&gt;2</title>
<path fill="none" stroke="black" stroke-dasharray="5,2" d="M1419.67,-1081.45C1426.85,-1193.75 1427.88,-1470.62 1283.25,-1625.4 1247.08,-1664.1 1185.79,-1676.64 1142.4,-1680.48"/>
<polygon fill="black" stroke="black" points="1142.04,-1676.99 1132.33,-1681.24 1142.57,-1683.97 1142.04,-1676.99"/>
</g>
<!-- 11&#45;&gt;3 -->
<g id="edge25" class="edge">
<title>11&#45;&gt;3</title>
<path fill="none" stroke="black" stroke-dasharray="5,2" d="M1788.81,-1081.25C1767.83,-1128.77 1730.29,-1200.03 1678.25,-1245.2 1646.74,-1272.54 1413.19,-1367.13 1283.48,-1418.48"/>
<polygon fill="black" stroke="black" points="1281.96,-1415.32 1273.95,-1422.26 1284.53,-1421.83 1281.96,-1415.32"/>
</g>
<!-- 11&#45;&gt;2 -->
<g id="edge24" class="edge">
<title>11&#45;&gt;2</title>
<path fill="none" stroke="black" stroke-dasharray="5,2" d="M1787.36,-1081.3C1735.15,-1197.68 1586.97,-1490.24 1364.25,-1625.4 1295.16,-1667.32 1199.98,-1678.48 1142.46,-1681.19"/>
<polygon fill="black" stroke="black" points="1142.03,-1677.71 1132.17,-1681.61 1142.31,-1684.7 1142.03,-1677.71"/>
</g>
<!-- 12 -->
<g id="node13" class="node">
<title>12</title>
<polygon fill="#f2f2f2" stroke="black" points="1218.32,-302.9 1218.32,-478.1 1656.17,-478.1 1656.17,-302.9 1218.32,-302.9"/>
<text text-anchor="middle" x="1437.25" y="-461.5" font-family="Times,serif" font-size="14.00">MockLiquidator</text>
<text text-anchor="middle" x="1437.25" y="-444.7" font-family="Times,serif" font-size="14.00">mockMockLiquidator.sol</text>
<polyline fill="none" stroke="black" points="1218.32,-436.5 1656.17,-436.5 "/>
<text text-anchor="start" x="1226.32" y="-419.9" font-family="Times,serif" font-size="14.00">Public:</text>
<text text-anchor="start" x="1226.32" y="-403.1" font-family="Times,serif" font-size="14.00"> &#160;&#160;_ratios: mapping(bytes32=&gt;uint256)</text>
<polyline fill="none" stroke="black" points="1218.32,-394.9 1656.17,-394.9 "/>
<text text-anchor="start" x="1226.32" y="-378.3" font-family="Times,serif" font-size="14.00">Internal:</text>
<text text-anchor="start" x="1226.32" y="-361.5" font-family="Times,serif" font-size="14.00"> &#160;&#160;&#160;_getPairKey(pair: Globals.Pair): bytes32</text>
<text text-anchor="start" x="1226.32" y="-344.7" font-family="Times,serif" font-size="14.00">Public:</text>
<text text-anchor="start" x="1226.32" y="-327.9" font-family="Times,serif" font-size="14.00"> &#160;&#160;&#160;liquidate(pair: Globals.Pair, amount: uint256, reciever: address): uint256</text>
<text text-anchor="start" x="1226.32" y="-311.1" font-family="Times,serif" font-size="14.00"> &#160;&#160;&#160;setPairRatio(pair: Globals.Pair, ratio: uint256)</text>
</g>
<!-- 12&#45;&gt;3 -->
<g id="edge28" class="edge">
<title>12&#45;&gt;3</title>
<path fill="none" stroke="black" stroke-dasharray="5,2" d="M1494.43,-478.35C1545.42,-561.36 1616.34,-692.03 1645.25,-817 1666.69,-909.71 1696.51,-1165.03 1645.25,-1245.2 1604,-1309.71 1401.99,-1385.09 1283.79,-1424.72"/>
<polygon fill="black" stroke="black" points="1282.4,-1421.49 1274.02,-1427.97 1284.62,-1428.13 1282.4,-1421.49"/>
</g>
<!-- 12&#45;&gt;2 -->
<g id="edge27" class="edge">
<title>12&#45;&gt;2</title>
<path fill="none" stroke="black" stroke-dasharray="5,2" d="M1462.83,-478.25C1494.6,-569.54 1558.12,-709.68 1665.25,-781 1765.29,-847.6 1854.12,-726.54 1933.25,-817 2058.54,-960.25 2008.3,-1070.31 1933.25,-1245.2 1836.52,-1470.59 1754.79,-1520.15 1533.25,-1625.4 1464.9,-1657.87 1242.57,-1673.63 1142.21,-1679.23"/>
<polygon fill="black" stroke="black" points="1141.82,-1675.74 1132.03,-1679.78 1142.2,-1682.73 1141.82,-1675.74"/>
</g>
<!-- 12&#45;&gt;10 -->
<g id="edge26" class="edge">
<title>12&#45;&gt;10</title>
<path fill="none" stroke="black" stroke-dasharray="5,2" d="M1434.26,-478.29C1429.97,-602.77 1422.13,-830.24 1417.99,-950.57"/>
<polygon fill="none" stroke="black" points="1407.48,-950.46 1416.94,-980.81 1428.47,-951.19 1407.48,-950.46"/>
</g>
<!-- 13 -->
<g id="node14" class="node">
<title>13</title>
<polygon fill="#f2f2f2" stroke="black" points="1674.58,-302.9 1674.58,-478.1 1963.92,-478.1 1963.92,-302.9 1674.58,-302.9"/>
<text text-anchor="middle" x="1819.25" y="-461.5" font-family="Times,serif" font-size="14.00">MockOracle</text>
<text text-anchor="middle" x="1819.25" y="-444.7" font-family="Times,serif" font-size="14.00">mockMockOracle.sol</text>
<polyline fill="none" stroke="black" points="1674.58,-436.5 1963.92,-436.5 "/>
<text text-anchor="start" x="1682.58" y="-419.9" font-family="Times,serif" font-size="14.00">Public:</text>
<text text-anchor="start" x="1682.58" y="-403.1" font-family="Times,serif" font-size="14.00"> &#160;&#160;_ratios: mapping(bytes32=&gt;uint256)</text>
<polyline fill="none" stroke="black" points="1674.58,-394.9 1963.92,-394.9 "/>
<text text-anchor="start" x="1682.58" y="-378.3" font-family="Times,serif" font-size="14.00">Internal:</text>
<text text-anchor="start" x="1682.58" y="-361.5" font-family="Times,serif" font-size="14.00"> &#160;&#160;&#160;_getPairKey(pair: Globals.Pair): bytes32</text>
<text text-anchor="start" x="1682.58" y="-344.7" font-family="Times,serif" font-size="14.00">Public:</text>
<text text-anchor="start" x="1682.58" y="-327.9" font-family="Times,serif" font-size="14.00"> &#160;&#160;&#160;getPairRatio(pair: Globals.Pair): uint256</text>
<text text-anchor="start" x="1682.58" y="-311.1" font-family="Times,serif" font-size="14.00"> &#160;&#160;&#160;setPairRatio(pair: Globals.Pair, ratio: uint256)</text>
</g>
<!-- 13&#45;&gt;3 -->
<g id="edge31" class="edge">
<title>13&#45;&gt;3</title>
<path fill="none" stroke="black" stroke-dasharray="5,2" d="M1849.64,-478.16C1877.75,-563.2 1917.48,-697.2 1933.25,-817 1958.08,-1005.68 2048.16,-1093.5 1933.25,-1245.2 1854.33,-1349.39 1461.31,-1415.83 1284.12,-1440.95"/>
<polygon fill="black" stroke="black" points="1283.47,-1437.51 1274.05,-1442.37 1284.44,-1444.44 1283.47,-1437.51"/>
</g>
<!-- 13&#45;&gt;2 -->
<g id="edge30" class="edge">
<title>13&#45;&gt;2</title>
<path fill="none" stroke="black" stroke-dasharray="5,2" d="M1861.59,-478.18C1900.21,-562.42 1954.48,-695.11 1976.25,-817 2009.71,-1004.35 2028.6,-1062.23 1976.25,-1245.2 1921.47,-1436.64 1908.99,-1521.31 1739.25,-1625.4 1688.79,-1656.34 1285.76,-1674.4 1142.53,-1679.9"/>
<polygon fill="black" stroke="black" points="1142.14,-1676.41 1132.28,-1680.29 1142.4,-1683.4 1142.14,-1676.41"/>
</g>
<!-- 13&#45;&gt;11 -->
<g id="edge29" class="edge">
<title>13&#45;&gt;11</title>
<path fill="none" stroke="black" stroke-dasharray="5,2" d="M1817.75,-478.29C1815.61,-602.77 1811.69,-830.24 1809.62,-950.57"/>
<polygon fill="none" stroke="black" points="1799.11,-950.63 1809.1,-980.81 1820.11,-950.99 1799.11,-950.63"/>
</g>
<!-- 14 -->
<g id="node15" class="node">
<title>14</title>
<polygon fill="#f2f2f2" stroke="black" points="1981.54,-340.5 1981.54,-440.5 2254.95,-440.5 2254.95,-340.5 1981.54,-340.5"/>
<text text-anchor="middle" x="2118.25" y="-423.9" font-family="Times,serif" font-size="14.00">MockToken</text>
<text text-anchor="middle" x="2118.25" y="-407.1" font-family="Times,serif" font-size="14.00">mockMockToken.sol</text>
<polyline fill="none" stroke="black" points="1981.54,-398.9 2254.95,-398.9 "/>
<text text-anchor="start" x="1989.54" y="-382.3" font-family="Times,serif" font-size="14.00">Public:</text>
<text text-anchor="start" x="1989.54" y="-365.5" font-family="Times,serif" font-size="14.00"> &#160;&#160;&#160;constructor(name_: string, symbol_: string)</text>
<text text-anchor="start" x="1989.54" y="-348.7" font-family="Times,serif" font-size="14.00"> &#160;&#160;&#160;setBalance(to: address, value: uint256)</text>
</g>
</g>
</svg>
